<svg xmlns="http://www.w3.org/2000/svg" xmlns:xlink="http://www.w3.org/1999/xlink" width="777" height="300" viewBox="0 0 777 300">
  <defs>
    <linearGradient id="linear-gradient" x1="0.035" y1="0.009" x2="0.5" y2="0.739" gradientUnits="objectBoundingBox">
      <stop offset="0" stop-color="#878787"/>
      <stop offset="1" stop-color="#636363"/>
    </linearGradient>
    <linearGradient id="linear-gradient-2" x1="0.821" y1="1.046" x2="0.466" y2="0.174" gradientUnits="objectBoundingBox">
      <stop offset="0" stop-color="#efb637"/>
      <stop offset="0.311" stop-color="#eda921"/>
      <stop offset="0.738" stop-color="#ea9b08"/>
      <stop offset="1" stop-color="#ea9600"/>
    </linearGradient>
    <clipPath id="clip-logo_1">
      <rect width="777" height="300"/>
    </clipPath>
  </defs>
  <g id="logo_1" data-name="logo – 1" clip-path="url(#clip-logo_1)">
    <g id="组_1" data-name="组 1" transform="translate(-6099.051 -1067)">
      <g id="组_20" data-name="组 20">
        <path id="路径_87" data-name="路径 87" d="M6219.422,1185.743v-36.729a2.465,2.465,0,0,1,3.7-2.135l31.808,18.364Z" fill="url(#linear-gradient)"/>
        <path id="路径_88" data-name="路径 88" d="M6113.1,1247.241l61.4-35.447a7.4,7.4,0,0,0,3.7-6.4v-73.458a2.465,2.465,0,0,0-3.7-2.135l-57.7,33.313a7.4,7.4,0,0,0-3.7,6.4Z" fill="#eab300"/>
        <path id="路径_89" data-name="路径 89" d="M6193.532,1200.691l61.4-35.448v77.728a7.394,7.394,0,0,1-3.7,6.405l-57.7,33.313a2.466,2.466,0,0,1-3.7-2.135V1207.1A7.4,7.4,0,0,1,6193.532,1200.691Z" fill="#4d4d4d"/>
        <path id="路径_90" data-name="路径 90" d="M6113.1,1247.241l49.54,28.551a2.466,2.466,0,0,0,3.72-2.122v-57.178Z" fill="url(#linear-gradient-2)"/>
      </g>
      <g id="组_22" data-name="组 22">
        <path id="路径_91" data-name="路径 91" d="M6390.676,1236.907l-.138-25.859c.061-.995.266-7.215-3.755-11.566-2.554-2.765-6.169-4.154-10.742-4.129a32.939,32.939,0,0,0-5.588.559l-2.082.3.218,40.814-14.906.08-.377-70.6,14.906-.08.1,17.989,2.569-.181c3.164-.224,4.051-.333,7.4-.351,24.306-.13,26.3,19.666,26.333,25.737l.146,27.218Z" fill="#fff"/>
        <path id="路径_92" data-name="路径 92" d="M6434.619,1236.672c-13.538.072-24.615-11.778-24.693-26.417s10.872-26.606,24.409-26.678,24.614,11.778,24.692,26.416S6448.156,1236.6,6434.619,1236.672Zm-.22-41.19c-5.971.032-9.65,5.662-9.6,14.694s3.787,14.623,9.758,14.591,9.65-5.663,9.6-14.694S6440.369,1195.45,6434.4,1195.482Z" fill="#fff"/>
        <path id="路径_93" data-name="路径 93" d="M6659.614,1238.133c-13.538.072-24.614-11.778-24.693-26.417s10.872-26.606,24.41-26.679,24.614,11.778,24.692,26.417S6673.151,1238.06,6659.614,1238.133Zm-.22-41.191c-5.971.032-9.65,5.663-9.6,14.695s3.787,14.622,9.759,14.59,9.649-5.662,9.6-14.694S6665.365,1196.911,6659.394,1196.942Z" fill="#fff"/>
        <path id="路径_94" data-name="路径 94" d="M6512.356,1236.257l-13.318-34.306-12.951,34.446-14.242.076-11.343-51.628,14.426-.077,4.829,30.807,12.226-30.9,13.927-.074,12.556,30.766,4.5-30.857,14.425-.077-10.792,51.746Z" fill="#fff"/>
        <path id="路径_95" data-name="路径 95" d="M6323.959,1237.263c-5.794.031-13.314-.807-23.553-2.628l-.07-13.164c4.336,1.266,12.185,3.4,17.594,3.973a25.079,25.079,0,0,0,2.728.144c7.089-.039,10.175-3.731,10.7-7.174.8-5.23-4.13-8.26-9.437-10.292l0-.005-.225-.08c-.648-.244-1.3-.473-1.947-.691l-.618-.219c-4.651-1.625-10.44-3.647-14.713-8.087-3.3-3.43-4.814-8.743-4.147-14.575.7-6.114,3.689-11.714,7.614-14.268,3.87-2.516,8.056-4.2,15.91-4.242,5.793-.031,13.312.806,23.553,2.628l.07,13.164c-4.336-1.266-12.185-3.4-17.594-3.973a25.031,25.031,0,0,0-2.727-.144c-7.088.038-10.175,3.73-10.7,7.173-.789,5.176,4.029,8.2,9.272,10.23l-.006.009.431.153c.634.238,1.271.463,1.9.675l.623.221c4.651,1.624,10.439,3.646,14.714,8.086,3.3,3.431,4.813,8.743,4.146,14.575-.7,6.115-3.688,11.715-7.615,14.268-3.869,2.516-8.056,4.2-15.907,4.243Z" fill="#fff"/>
        <g id="组_21" data-name="组 21">
          <path id="路径_96" data-name="路径 96" d="M6845.914,1187.089l-37.93,79.441,13.5-.072s31.175-47.932,40.521-79.455Z" fill="#fff"/>
          <path id="路径_97" data-name="路径 97" d="M6835.744,1224.427l-18.671-37.184-16.093.086c4.648,15.086,14.366,33.891,23.217,49.376Z" fill="#fff"/>
        </g>
        <path id="路径_98" data-name="路径 98" d="M6614.727,1236.48l15.8.192-14.45-68.279h-15.8l-15.579,46.059-15.579-46.059h-15.8l-14.45,68.279,15.8-.192,8.663-42.136,13.99,41.912-.075.224h14.9l-.075-.224,13.99-41.912Z" fill="#fff"/>
        <path id="路径_99" data-name="路径 99" d="M6741.6,1212.185c-.031-5.84-1.95-24.885-25.333-24.76-3.219.017-4.074.123-7.117.338l-2.471.174s-6.659.528-14.432,1.55v1.774h.007l.356,44.484,14.339-.076-.21-36.378,2-.287a31.755,31.755,0,0,1,5.376-.538c4.4-.024,7.877,1.313,10.334,3.972,3.868,4.186,3.671,10.17,3.613,11.127l.132,21.99,13.543-.072Z" fill="#fff"/>
        <path id="路径_100" data-name="路径 100" d="M6798.678,1214.831a26.529,26.529,0,0,0,.207-3.391c-.069-14.143-11.227-25.584-24.874-25.5s-24.7,11.651-24.626,25.794,11.228,25.584,24.875,25.5a24.892,24.892,0,0,0,23.206-17.1h-12c-2.275,3.538-6.173,5.57-11.262,5.6-7.311.042-12.224-4.057-13.387-10.9h37.861Zm-24.612-17.4c5.99-.035,10.358,2.72,12.386,7.476h-24.639C6763.821,1200.22,6768.136,1197.47,6774.066,1197.435Z" fill="#fff"/>
      </g>
    </g>
  </g>
</svg>
